<svg width="236" height="28" viewBox="0 0 236 28" fill="none" xmlns="http://www.w3.org/2000/svg">
<path d="M0.96 27V0.92H9.72C11.5333 0.92 13.16 1.12 14.6 1.52C16.04 1.89333 17.1733 2.54667 18 3.48C18.8533 4.41333 19.28 5.72 19.28 7.4C19.28 8.57333 18.92 9.70667 18.2 10.8C17.48 11.8933 16.3467 12.64 14.8 13.04V13.2C16.6667 13.52 18.08 14.1867 19.04 15.2C20 16.1867 20.48 17.56 20.48 19.32C20.48 21.08 20.04 22.5333 19.16 23.68C18.28 24.8 17.08 25.64 15.56 26.2C14.0667 26.7333 12.3733 27 10.48 27H0.96ZM6.84 11.4H9.44C10.88 11.4 11.92 11.12 12.56 10.56C13.2 9.97333 13.52 9.18667 13.52 8.2C13.52 7.24 13.1867 6.56 12.52 6.16C11.88 5.73333 10.8667 5.52 9.48 5.52H6.84V11.4ZM6.84 22.4H10C11.6 22.4 12.7867 22.1067 13.56 21.52C14.3333 20.9333 14.72 20.0533 14.72 18.88C14.72 17.7333 14.3333 16.9067 13.56 16.4C12.7867 15.8933 11.6 15.64 10 15.64H6.84V22.4ZM22.3444 27L30.4644 0.92H37.5044L45.6244 27H39.3844L36.0244 13.8C35.7044 12.4933 35.3577 11.1067 34.9844 9.64C34.611 8.17333 34.2644 6.76 33.9444 5.4H33.7844C33.4644 6.76 33.131 8.17333 32.7844 9.64C32.4377 11.1067 32.091 12.4933 31.7444 13.8L28.3444 27H22.3444ZM27.7044 20.8V16.2H40.1844V20.8H27.7044ZM48.7688 27V0.92H58.0088C59.8488 0.92 61.5288 1.17333 63.0488 1.68C64.5688 2.16 65.7821 3 66.6888 4.2C67.6221 5.37333 68.0888 6.98667 68.0888 9.04C68.0888 11.04 67.6221 12.6667 66.6888 13.92C65.7821 15.1733 64.5688 16.1067 63.0488 16.72C61.5288 17.3067 59.8488 17.6 58.0088 17.6H54.6488V27H48.7688ZM54.6488 12.92H57.5288C59.0754 12.92 60.2488 12.6 61.0488 11.96C61.8754 11.2933 62.2888 10.32 62.2888 9.04C62.2888 7.76 61.8754 6.86667 61.0488 6.36C60.2488 5.85333 59.0754 5.6 57.5288 5.6H54.6488V12.92ZM56.9288 16.08L61.0088 12.28L69.3288 27H62.7288L56.9288 16.08ZM78.9931 27V5.88H71.1931V0.92H92.7131V5.88H84.9131V27H78.9931Z" fill="#00B4D8"/>
<path d="M105.938 27.48C103.858 27.48 102.031 26.96 100.458 25.92C98.8842 24.88 97.6575 23.36 96.7775 21.36C95.8975 19.3333 95.4575 16.8267 95.4575 13.84C95.4575 10.9333 95.8975 8.49333 96.7775 6.52C97.6575 4.52 98.8842 3.01333 100.458 2C102.031 0.959999 103.858 0.439999 105.938 0.439999C108.018 0.439999 109.844 0.959999 111.418 2C112.991 3.01333 114.218 4.52 115.098 6.52C115.978 8.49333 116.418 10.9333 116.418 13.84C116.418 16.8267 115.978 19.3333 115.098 21.36C114.218 23.36 112.991 24.88 111.418 25.92C109.844 26.96 108.018 27.48 105.938 27.48ZM105.938 22.4C106.844 22.4 107.631 22.08 108.298 21.44C108.964 20.7733 109.471 19.8133 109.818 18.56C110.191 17.28 110.378 15.7067 110.378 13.84C110.378 12.0267 110.191 10.5067 109.818 9.28C109.471 8.05333 108.964 7.12 108.298 6.48C107.631 5.84 106.844 5.52 105.938 5.52C105.031 5.52 104.244 5.84 103.578 6.48C102.911 7.12 102.391 8.05333 102.018 9.28C101.671 10.5067 101.498 12.0267 101.498 13.84C101.498 15.7067 101.671 17.28 102.018 18.56C102.391 19.8133 102.911 20.7733 103.578 21.44C104.244 22.08 105.031 22.4 105.938 22.4ZM122.202 27V0.92H128.082V22.04H139.682V27H122.202ZM153.906 27.48C151.826 27.48 150 26.96 148.426 25.92C146.853 24.88 145.626 23.36 144.746 21.36C143.866 19.3333 143.426 16.8267 143.426 13.84C143.426 10.9333 143.866 8.49333 144.746 6.52C145.626 4.52 146.853 3.01333 148.426 2C150 0.959999 151.826 0.439999 153.906 0.439999C155.986 0.439999 157.813 0.959999 159.386 2C160.96 3.01333 162.186 4.52 163.066 6.52C163.946 8.49333 164.386 10.9333 164.386 13.84C164.386 16.8267 163.946 19.3333 163.066 21.36C162.186 23.36 160.96 24.88 159.386 25.92C157.813 26.96 155.986 27.48 153.906 27.48ZM153.906 22.4C154.813 22.4 155.6 22.08 156.266 21.44C156.933 20.7733 157.44 19.8133 157.786 18.56C158.16 17.28 158.346 15.7067 158.346 13.84C158.346 12.0267 158.16 10.5067 157.786 9.28C157.44 8.05333 156.933 7.12 156.266 6.48C155.6 5.84 154.813 5.52 153.906 5.52C153 5.52 152.213 5.84 151.546 6.48C150.88 7.12 150.36 8.05333 149.986 9.28C149.64 10.5067 149.466 12.0267 149.466 13.84C149.466 15.7067 149.64 17.28 149.986 18.56C150.36 19.8133 150.88 20.7733 151.546 21.44C152.213 22.08 153 22.4 153.906 22.4ZM168.211 27V0.92H174.371L176.931 10.16L177.811 13.76H177.971L178.851 10.16L181.411 0.92H187.571V27H182.611V18.92C182.611 18.2 182.637 17.3067 182.691 16.24C182.744 15.1467 182.811 14.0133 182.891 12.84C182.971 11.6667 183.051 10.5467 183.131 9.48C183.237 8.41333 183.317 7.53333 183.371 6.84H183.251L181.251 13.8L179.251 20.08H176.371L174.331 13.8L172.451 6.84H172.331C172.384 7.53333 172.451 8.41333 172.531 9.48C172.637 10.5467 172.731 11.6667 172.811 12.84C172.891 14.0133 172.957 15.1467 173.011 16.24C173.064 17.3067 173.091 18.2 173.091 18.92V27H168.211ZM193.555 27V0.92H210.835V5.88H199.475V11.12H209.115V16.04H199.475V22.04H211.235V27H193.555ZM225.939 27.48C224.339 27.48 222.939 27.2533 221.739 26.8C220.566 26.32 219.579 25.64 218.779 24.76C218.006 23.8533 217.419 22.76 217.019 21.48C216.619 20.1733 216.419 18.6667 216.419 16.96V0.92H222.299V17.56C222.299 18.6 222.433 19.48 222.699 20.2C222.966 20.92 223.366 21.4667 223.899 21.84C224.433 22.2133 225.113 22.4 225.939 22.4C226.766 22.4 227.446 22.2133 227.979 21.84C228.539 21.4667 228.953 20.92 229.219 20.2C229.486 19.48 229.619 18.6 229.619 17.56V0.92H235.299V16.96C235.299 18.6667 235.113 20.1733 234.739 21.48C234.366 22.76 233.779 23.8533 232.979 24.76C232.206 25.64 231.233 26.32 230.059 26.8C228.886 27.2533 227.513 27.48 225.939 27.48Z" fill="#373E40"/>
</svg>
